<?xml version="1.0" encoding="utf-8"?>
<!-- Generator: Adobe Illustrator 21.0.0, SVG Export Plug-In . SVG Version: 6.00 Build 0)  -->
<svg version="1.1" id="Layer_1" xmlns="http://www.w3.org/2000/svg" xmlns:xlink="http://www.w3.org/1999/xlink" x="0px" y="0px"
	 viewBox="0 0 1024 1024" style="enable-background:new 0 0 1024 1024;" xml:space="preserve">
<style type="text/css">
	.st0{fill:#56D9A3;}
	.st1{fill:#016644;}
</style>
<title>BI Color</title>
<path class="st0" d="M837.9,760.2c-3.7,70.3-30.4,137.5-75.9,191.3c-4.7,5.6-11.7,8.8-19,8.8c-13.9,0-25.1-11.2-25.1-25.1
	c0-5.9,2.1-11.7,5.9-16.2c37-43.8,59.3-98.1,63.8-155.2c3.2,0.9,6.4,1.5,9.7,2c3.5,0.5,7,0.7,10.5,0.8c1.5,0,2.8,0,4.1-0.1h0.3
	c0.4,0,0.9-0.1,1.3-0.1c0.7,0,1.4-0.1,2.3-0.2l0.5-0.1l0.5-0.1l0.4-0.1h0.2h0.1c0.7-0.1,1.5-0.2,2.5-0.4c0.5-0.1,1-0.2,1.5-0.3
	c0.8-0.1,1.6-0.3,2.3-0.5s1.3-0.3,1.7-0.4c0.8-0.2,1.6-0.4,2.3-0.6l1.6-0.5h0.1h0.1l0.3-0.1l1.6-0.5l0.2-0.1l0,0l1.2-0.4
	c0.7-0.3,1.3-0.5,1.7-0.6l0.5-0.2l0.3-0.1l0.3-0.1h0.1l0.9-0.4h0.1h0.1L837.9,760.2z"/>
<path class="st1" d="M862,408.6v199.3c-1.2-3.1-2.4-6.1-3.7-9c-17-40.8-41.1-78.4-71.1-110.9l-5.9-6.3c-6.2-6.5-12.7-12.7-19.3-18.7
	v-54.4c0-27.6,22.4-50,50-50S862,381,862,408.6z"/>
<path class="st1" d="M857.5,686.8c0.1,1.8,0.2,3.5,0.2,5.2c0,2-0.1,4-0.4,5.9c-0.1,0.7-0.2,1.3-0.3,1.9c-0.2,1.3-0.5,2.6-0.8,3.8
	s-0.7,2.5-1.1,3.7c-0.6,1.6-1.2,3.2-1.9,4.8c-1.2,2.5-2.5,4.9-4.1,7.2c-2.3,3.4-5.1,6.6-8.1,9.3c-1,0.9-2.1,1.8-3.2,2.7
	s-2.2,1.6-3.4,2.4s-2.4,1.4-3.6,2.1s-2.5,1.3-3.8,1.8s-2.6,1-3.9,1.5s-2.7,0.8-4.1,1.1l0,0c-0.8,0.2-1.7,0.3-2.5,0.5l-0.8,0.1
	c-0.6,0.1-1.2,0.2-1.8,0.3l-0.8,0.1c-0.7,0.1-1.4,0.1-2.1,0.2h-0.4c-0.8,0-1.7,0.1-2.5,0.1h-0.2h-1.3h-0.3c-0.7,0-1.3-0.1-2-0.1
	h-0.5c-0.5,0-0.9-0.1-1.4-0.1l-0.7-0.1l-1.3-0.2l-0.7-0.1l-1.3-0.2l-0.7-0.1l-1.5-0.3L796,740c-0.6-0.2-1.3-0.3-1.9-0.5l-0.4-0.1
	c-0.5-0.1-1-0.3-1.4-0.4l-0.6-0.2l-1.2-0.4l-0.7-0.3l-1.2-0.5l-0.6-0.3l-1.4-0.6l-0.4-0.2c-0.6-0.3-1.2-0.6-1.7-0.9l-0.3-0.2
	c-0.5-0.3-0.9-0.5-1.4-0.8l-0.5-0.3l-1.1-0.7l-0.6-0.4l-1.1-0.7l-0.5-0.4l-1.2-0.8l-0.4-0.3c-0.5-0.4-1-0.8-1.5-1.2l-0.2-0.2
	l-1.3-1.1l-0.5-0.4c-0.3-0.3-0.7-0.6-1-0.9l-0.5-0.5l-0.9-0.9l-0.5-0.5c-0.3-0.3-0.6-0.7-0.9-1l-0.4-0.4c-0.4-0.5-0.9-1-1.3-1.5
	l-0.1-0.1c-0.4-0.5-0.7-0.9-1.1-1.4c-0.1-0.2-0.3-0.3-0.4-0.5c-0.3-0.4-0.5-0.7-0.8-1.1c-0.1-0.2-0.3-0.4-0.4-0.6
	c-0.2-0.4-0.5-0.7-0.7-1.1c-0.1-0.2-0.3-0.4-0.4-0.6c-0.2-0.4-0.5-0.8-0.7-1.2l-0.3-0.6c-0.3-0.6-0.6-1.2-0.9-1.7l0,0
	c-0.9-1.9-1.7-3.9-2.4-6s-1.3-4.2-1.8-6.3c-0.2-0.9-0.4-1.8-0.6-2.7c-0.3-1.6-0.7-3.2-1-4.7c-0.9-4.8-1.7-9.5-2.9-14.1
	c-0.3-1.3-0.7-2.6-1-4s-0.7-2.6-1.1-3.9c-0.5-1.7-1-3.4-1.6-5.2c-3.4-10.8-7.6-21.4-12.5-31.7c-0.5-1-1-2-1.5-3
	c-1.9-3.8-3.9-7.6-6-11.4l-1.9-3.3c-1.6-2.9-3.3-5.7-5.1-8.5c-2.2-3.5-4.4-6.8-6.8-10.2c-1.6-2.2-3.2-4.4-4.8-6.6
	c-2.5-3.3-5-6.5-7.6-9.6c-1.3-1.6-2.7-3.2-4.1-4.8c-2.1-2.5-4.3-4.9-6.6-7.3c-1-1.1-2-2.1-3-3.2c-1.9-2-3.9-3.9-5.9-5.8
	c-3.2-3.1-6.6-6.1-10-9c-2.7-2.3-5.4-4.5-8.1-6.7c-2.1-1.7-4.2-3.3-6.4-4.9c-1.5-1.1-2.9-2.2-4.4-3.2c-4.4-3.2-9-6.2-13.7-9
	c-1.2-0.7-2.3-1.4-3.5-2.1c-3.5-2.1-7.1-4.1-10.8-6c-2.4-1.3-4.9-2.5-7.3-3.7s-5-2.3-7.5-3.5c-1.3-0.6-2.5-1.1-3.8-1.6
	c-2.5-1.1-5.1-2.1-7.6-3.1c-3-1.1-6-2.2-9-3.3c-1.7-0.6-3.5-1.2-5.3-1.7s-3.5-1.1-5.2-1.6c-5.8-1.7-11.6-3.2-17.5-4.4
	c-2.3-0.5-4.5-0.9-6.8-1.3c-1.8-0.3-3.6-0.7-5.4-0.9c-3.6-0.6-7.2-1.1-10.8-1.5s-7.3-0.8-10.9-1c-5.5-0.4-10.9-0.6-16.4-0.7l0,0
	c-1.6,0-3.3,0-4.9,0c-1,0-2,0-3.1,0c-1.2,0-2.4,0.1-3.7,0.1c-1,0-2,0-3,0.1l-3.7,0.2c-1,0.1-2,0.1-3,0.2c-1.3,0.1-2.5,0.2-3.8,0.3
	l-2.9,0.3l-3.9,0.4c-0.9,0.1-1.9,0.2-2.8,0.3c-1.3,0.2-2.7,0.4-4,0.6l-2.6,0.4c-1.5,0.2-3,0.5-4.4,0.7L466,496
	c-2.2,0.4-4.4,0.8-6.5,1.3l0,0c-1.6,0.3-3.2,0.7-4.8,1.1s-3.2,0.8-4.8,1.2c-2.1,0.5-4.2,1.1-6.2,1.6l-2.1,0.6
	c-3.9,1.1-7.8,2.4-11.6,3.7c-2.8,1-5.5,2-8.3,3s-5.5,2.1-8.1,3.3c-2.7,1.2-5.4,2.3-8,3.6c-2,0.9-4,1.9-5.9,2.9s-3.9,2-5.8,3
	c-3.4,1.8-6.8,3.8-10.1,5.8s-6.5,4-9.7,6.1s-6.3,4.3-9.4,6.5c-1.5,1.1-3.1,2.3-4.6,3.4c-4.5,3.5-9,7.1-13.3,10.9
	c-3.2,2.8-6.3,5.7-9.4,8.7c-1.5,1.5-3,3-4.5,4.5c-4.5,4.6-8.8,9.3-12.9,14.2c-2.7,3.3-5.4,6.6-8,10c-5.6,7.5-10.9,15.2-15.6,23.3
	c-3.6,6-6.9,12.2-10,18.5c-9.2,19-16,39-20.1,59.7c-2.2,11-3.6,22.1-4.3,33.3c-0.2,3.7-0.4,7.4-0.4,11.2c0,1.5,0,3.1,0,4.7
	c0,3.1,0.1,6.2,0.2,9.3c0.2,4.7,0.5,9.3,0.9,14c0.3,3.1,0.6,6.2,1,9.3c0.6,4.6,1.3,9.2,2.2,13.8c1.4,7.6,3.2,15.2,5.3,22.7
	c0.2,0.8,0.5,1.6,0.7,2.3c0.4,1.4,0.9,2.9,1.3,4.3c0.5,1.7,1.1,3.4,1.7,5.1c0.4,1.3,0.9,2.6,1.4,3.9c0.6,1.7,1.3,3.4,1.9,5.2
	c0.9,2.3,1.8,4.6,2.7,6.8s1.9,4.5,3,6.8c2.1,4.7,4.4,9.3,6.9,13.9c2.4,4.6,5,9,7.7,13.4c0.4,0.7,0.8,1.3,1.2,2l0.8,1.3
	c1.2,1.9,2.5,3.8,3.6,5.7c0.6,1,1.2,1.9,1.8,2.9s1.3,2,1.9,3c0.5,0.9,1,1.7,1.5,2.6c0.7,1.3,1.4,2.6,2.1,3.9
	c0.4,0.9,0.9,1.8,1.2,2.7c0.6,1.3,1.1,2.7,1.6,4.1c0.8,2.3,1.5,4.7,1.9,7.2c0.2,1,0.3,2,0.4,3c0,0.5,0.1,1.1,0.1,1.6
	c0.1,1,0.1,2,0.1,3.1l0,0c0,1.1,0,2.2-0.1,3.3c-0.3,4-1.2,7.9-2.5,11.7c-0.4,1.3-0.9,2.5-1.4,3.7s-1.1,2.4-1.7,3.6s-1.3,2.3-1.9,3.4
	s-1.4,2.2-2.2,3.3s-1.6,2.1-2.5,3.1c-1.3,1.5-2.6,2.9-4.1,4.2c-1,0.9-2,1.8-3,2.6c-0.5,0.4-1,0.8-1.6,1.2c-1.1,0.8-2.1,1.5-3.3,2.2
	c-1.7,1-3.4,2-5.2,2.8c-1.2,0.6-2.4,1.1-3.7,1.5s-2.5,0.9-3.8,1.2c-0.6,0.2-1.3,0.3-2,0.5l0,0c-0.9,0.2-1.8,0.4-2.6,0.5l-0.9,0.1
	c-0.6,0.1-1.2,0.2-1.8,0.3l-1,0.1l-1.6,0.1h-1.1c-0.5,0-1,0-1.6,0h-0.4H266h-0.4c-0.8,0-1.5-0.1-2.3-0.1h-0.6L261,965l-0.6-0.1
	c-1.5-0.2-3-0.5-4.5-0.8l-0.6-0.2c-0.6-0.1-1.1-0.3-1.7-0.5l-0.5-0.2c-0.7-0.2-1.5-0.5-2.2-0.7l-0.4-0.1c-0.6-0.2-1.2-0.4-1.8-0.7
	l-0.6-0.3c-0.6-0.2-1.2-0.5-1.8-0.8l-0.4-0.2c-0.7-0.3-1.3-0.7-2-1l-0.5-0.3l-1.6-0.9l-0.6-0.3c-0.7-0.4-1.3-0.8-2-1.2
	c-0.9-0.6-1.9-1.3-2.8-2s-1.7-1.5-2.5-2.2s-1.6-1.6-2.4-2.4s-1.5-1.7-2.2-2.5s-1.6-2-2.4-3c-1.9-2.6-3.7-5.2-5.5-7.9l-2.1-3.3
	c-3.2-4.9-6.3-9.9-9.3-15c-1-1.7-2-3.4-2.9-5.1c-1.3-2.3-2.6-4.6-3.8-6.9c-1-1.8-2-3.7-2.9-5.5c-1.9-3.7-3.7-7.5-5.5-11.2
	c-12.4-26.5-21.5-54.5-26.9-83.3c-0.4-1.9-0.7-3.8-1-5.8c-0.5-2.9-1-5.9-1.4-8.8c-0.7-4.4-1.2-8.8-1.7-13.3
	c-1-8.9-1.6-17.8-1.8-26.7c-0.3-8.8-0.2-17.6,0.3-26.4c0.7-13.3,2.1-26.5,4.3-39.7c0.5-3.3,1.1-6.5,1.8-9.8
	c1.3-6.5,2.7-12.9,4.3-19.3c2-8,4.3-15.9,6.9-23.7c0.5-1.6,1-3.1,1.6-4.7c1.1-3.1,2.2-6.2,3.4-9.3s2.4-6.1,3.6-9.2
	c1.3-3,2.5-6.1,3.9-9.1c1.3-3,2.7-6,4.1-9c2.1-4.5,4.3-8.9,6.6-13.2c0.8-1.5,1.5-2.9,2.3-4.3c1-1.8,2-3.6,3-5.4
	c3-5.3,6.2-10.6,9.6-15.8c1.8-2.8,3.6-5.5,5.4-8.2c1.8-2.7,3.7-5.4,5.7-8.1c3.8-5.3,7.8-10.6,12-15.7c2.1-2.5,4.2-5.1,6.3-7.6
	c3.2-3.7,6.5-7.4,9.9-11c1.4-1.5,2.8-3,4.3-4.5c2.9-3,5.8-5.9,8.8-8.8c1.5-1.4,3-2.9,4.5-4.3c2.4-2.3,4.9-4.5,7.4-6.7
	c1.3-1.1,2.5-2.2,3.8-3.3c2.5-2.2,5.1-4.3,7.7-6.4c5.2-4.2,10.5-8.2,16-12.1c1.7-1.2,3.4-2.4,5-3.5l1.5-1c1.3-0.9,2.5-1.7,3.8-2.5
	c0.5-0.3,1-0.6,1.5-1c1.7-1.1,3.5-2.2,5.2-3.3l0.2-0.1c1.7-1,3.4-2.1,5-3.1l1.5-0.9c1.3-0.8,2.7-1.6,4.1-2.4l1.4-0.8
	c1.8-1,3.6-2,5.4-3l0.3-0.2c1.7-0.9,3.4-1.8,5.1-2.7l1.5-0.8c1.5-0.8,2.9-1.5,4.4-2.2l1.3-0.6c1.9-0.9,3.7-1.8,5.6-2.7l0.3-0.1
	c1.8-0.8,3.5-1.6,5.3-2.4l1.4-0.6c1.6-0.7,3.1-1.3,4.7-2l1.1-0.5c2-0.8,3.9-1.6,5.9-2.4l0.3-0.1c1.8-0.7,3.6-1.4,5.5-2.1l1.3-0.5
	c1.7-0.6,3.3-1.2,5-1.8l0.9-0.3c2-0.7,4-1.4,6-2.1l0.4-0.1c1.8-0.6,3.7-1.2,5.5-1.8l1.3-0.4c1.7-0.5,3.5-1.1,5.2-1.6l0.8-0.2
	c2-0.6,4.1-1.2,6.2-1.7l0.5-0.1c1.8-0.5,3.7-1,5.5-1.5l1.3-0.3c1.8-0.5,3.6-0.9,5.4-1.3l0.7-0.2c2.1-0.5,4.2-0.9,6.3-1.4l0.6-0.1
	c1.8-0.4,3.6-0.8,5.5-1.1l1.3-0.3c1.8-0.3,3.7-0.7,5.5-1l0.6-0.1c2.1-0.4,4.2-0.7,6.3-1l0.9-0.1c1.8-0.3,3.5-0.5,5.3-0.8l1.4-0.2
	c1.8-0.2,3.7-0.5,5.5-0.7l0.6-0.1c2.1-0.2,4.2-0.5,6.2-0.6l1.1-0.1c1.7-0.1,3.4-0.3,5-0.4l1.6-0.1c1.8-0.1,3.6-0.3,5.4-0.4h0.7
	c2-0.1,4.1-0.2,6.2-0.3h1.4c1.6-0.1,3.2-0.1,4.8-0.1h1.8c1.8,0,3.5,0,5.3-0.1h0.9c2,0,4,0,6,0.1h1.7l4.3,0.1l2,0.1
	c1.5,0.1,3,0.1,4.5,0.2l1.5,0.1c1.9,0.1,3.9,0.2,5.8,0.4l1.8,0.1c1.4,0.1,2.8,0.2,4.2,0.4l2.2,0.2l4.2,0.4l1.8,0.2
	c1.9,0.2,3.8,0.5,5.8,0.7l1.7,0.2l4.3,0.6c0.7,0.1,1.4,0.2,2.2,0.3c1.4,0.2,2.7,0.4,4.1,0.7l1.9,0.3c1.9,0.3,3.8,0.7,5.7,1l1.4,0.3
	c1.5,0.3,3,0.6,4.5,0.9l2,0.4c1.4,0.3,2.8,0.6,4.1,0.9c0.6,0.1,1.2,0.3,1.8,0.4c1.9,0.5,3.9,0.9,5.8,1.4l0.8,0.2
	c1.7,0.4,3.4,0.9,5.1,1.3l1.9,0.5c1.4,0.4,2.8,0.8,4.2,1.2l1.8,0.5c1.9,0.6,3.8,1.1,5.8,1.8l0,0c3.5,1.1,7,2.3,10.4,3.5
	c3.5,1.2,6.9,2.5,10.3,3.8c6.8,2.6,13.5,5.5,20.1,8.5c1.7,0.8,3.3,1.5,4.9,2.3c3.3,1.6,6.5,3.2,9.7,4.9c2.6,1.4,5.3,2.8,7.8,4.2
	c3.7,2.1,7.4,4.2,11.1,6.4c1.5,0.9,3.1,1.9,4.6,2.8c3.1,1.9,6.1,3.9,9.1,5.9s6,4.1,8.9,6.2s5.8,4.2,8.7,6.4c2.9,2.2,5.7,4.4,8.5,6.7
	c7,5.7,13.8,11.6,20.3,17.8c2.6,2.5,5.2,5,7.7,7.6s5,5.2,7.5,7.8c1.2,1.3,2.5,2.6,3.7,4c3.6,4,7.2,8.1,10.6,12.3
	c1.2,1.4,2.3,2.8,3.4,4.2c2.3,2.8,4.5,5.7,6.6,8.5c1.5,2,3,4.1,4.5,6.2c1.2,1.7,2.5,3.5,3.7,5.2c2.5,3.6,4.9,7.2,7.2,10.9
	c4,6.3,7.8,12.6,11.4,19.1c1.2,2.2,2.4,4.3,3.5,6.5c0.7,1.4,1.4,2.8,2.1,4.1c2.6,5.1,5.1,10.3,7.4,15.5c0.9,2,1.7,4,2.6,5.9
	c5.9,13.9,10.9,28.3,14.9,42.9c0.2,0.8,0.5,1.7,0.7,2.6c0.5,1.7,1,3.5,1.5,5.3s1,3.6,1.5,5.4s1,3.6,1.4,5.5c0.2,0.9,0.5,1.8,0.7,2.8
	c0.4,1.8,0.8,3.7,1.2,5.5s0.7,3.7,0.9,5.5s0.4,3.5,0.6,5.2L857.5,686.8z"/>
<path class="st1" d="M262,108.6v354l-2.8,2.5l-0.5,0.5l-0.3,0.3l-0.1,0.1l-0.1,0.1l-0.4,0.4c-0.4,0.4-0.8,0.7-1.2,1.1l-0.5,0.5
	l-1.8,1.6L251,473c-2.1,2.1-4.2,4.2-6.3,6.3l-5.1,5.1l-0.2,0.2c-0.8,0.9-1.7,1.8-2.5,2.6c-1.7,1.8-3.2,3.5-4.6,5.1l-1,1.1l-2.9,3.3
	c-0.2,0.3-0.5,0.6-0.7,0.8c-0.7,0.9-1.5,1.7-2.3,2.6l-0.1,0.1c-0.6,0.7-1.1,1.3-1.7,2l-0.6,0.7c-0.7,0.8-1.3,1.6-2,2.4l-0.3,0.4
	l-0.2,0.3l-0.1,0.2l-0.1,0.1c-1.5,1.8-2.8,3.5-4.1,5.2l-0.4,0.6l-0.4,0.5l-0.1,0.1v0.1c-0.9,1.1-1.7,2.2-2.5,3.3l-0.1,0.1l0,0l0,0
	c-0.6,0.8-1.2,1.6-1.8,2.4c-1.5,2-3,4-4.6,6.3l0,0l0,0c-1.8,2.6-3.5,5-5.1,7.3l0,0l0,0c-1.6,2.3-3.2,4.8-4.9,7.5l0,0l0,0l-2.3,3.7
	l0,0l0,0c-3.1,5-6.2,10.3-9.2,15.6c-0.7,1.3-1.4,2.6-2.1,3.9v0.1v0.1c-1.4,2.7-2.9,5.3-4.2,7.9l0,0v0.1c-0.6,1.3-1.3,2.6-1.9,3.8
	l0,0l0,0l-0.3,0.6c-0.6,1.1-1.1,2.3-1.7,3.4v0.1v0.1l-0.6,1.3l-0.6,1.3c-0.6,1.2-1.1,2.4-1.6,3.5c-0.5,1-0.9,2-1.4,3l-0.1,0.2
	l-0.1,0.1c-0.3,0.6-0.6,1.3-0.8,1.9l-0.6,1.5l-0.1,0.1v0.1l-0.2,0.5c-0.5,1.1-0.9,2.1-1.4,3.2l-0.3,0.7l-0.2,0.4v0.1v0.1
	c-0.7,1.6-1.3,3.2-1.9,4.7l-0.2,0.5l0,0l0,0l-1.4,3.6L163,606v0.1v0.1c-0.1,0.3-0.2,0.5-0.3,0.7V108.6c0-27.6,22.4-50,50-50
	s50,22.4,50,50H262z"/>
<circle class="st0" cx="812" cy="283.6" r="50"/>
<path class="st1" d="M714.2,742.1c0,110.6-89.7,200.2-200.3,200c-110.5-0.2-199.9-89.9-199.7-200.3c0.1-38.1,11-75.3,31.5-107.4
	c4.4-7,13.7-9.1,20.7-4.7c0.9,0.6,1.8,1.3,2.6,2.1l128,128l7.1,7.1c5.9,5.9,15.4,5.9,21.2,0l0,0l134.5-134.6
	c5.9-5.9,15.4-5.9,21.2,0c0.8,0.8,1.5,1.7,2.1,2.6C703.4,666.9,714.2,704.1,714.2,742.1z"/>
<path class="st0" d="M644.5,612.2L525.1,731.5c-5.9,5.9-15.4,5.9-21.2,0l0,0l-120-120c-5.9-5.9-5.9-15.3,0-21.2
	c0.3-0.3,0.6-0.6,0.9-0.9l1.5-1.3l1.4-1.2c4.3-3.5,8.8-6.9,13.4-10c0.9-0.6,1.7-1.2,2.6-1.7c4.9-3.2,9.9-6.2,15.1-9.1
	c1.4-0.8,2.8-1.5,4.3-2.3c1.9-1,3.8-1.9,5.7-2.8c2.5-1.2,4.9-2.3,7.4-3.3c1.5-0.6,3-1.3,4.5-1.8c3-1.2,6.1-2.3,9.2-3.3
	c20.6-7,42.2-10.5,63.9-10.5c5.2,0,10.3,0.2,15.3,0.6c3.8,0.3,7.6,0.7,11.3,1.2c1.3,0.2,2.5,0.3,3.7,0.5c3.3,0.5,6.6,1.1,9.9,1.8
	c1.6,0.3,3.3,0.7,4.9,1.1c4.9,1.1,9.6,2.4,14.4,3.9c2,0.6,4,1.3,5.9,2c1.3,0.5,2.7,1,4,1.4s2.7,1,4,1.5c8.4,3.3,16.6,7.3,24.5,11.7
	c2.2,1.3,4.5,2.6,6.7,3.9c3.3,2,6.5,4.1,9.7,6.3c1,0.7,2.1,1.5,3.1,2.2c2.1,1.5,4.1,3.1,6.1,4.7c1,0.8,2,1.6,3,2.4s2.3,1.9,3.4,2.8
	c6.3,5.4,6.9,14.9,1.5,21.2C644.9,611.7,644.7,611.9,644.5,612.2z"/>
</svg>
